<svg xmlns="http://www.w3.org/2000/svg" viewBox="0 0 845.53 235.72"><defs><style>.cls-1{font-size:54px;}.cls-1,.cls-10,.cls-11,.cls-12,.cls-15{fill:#e5bab1;stroke:#e5bab1;stroke-miterlimit:10;}.cls-1,.cls-12{font-family:AboveDEMO-Regular, Above DEMO;}.cls-2{letter-spacing:-0.16em;}.cls-3{letter-spacing:-0.02em;}.cls-4{letter-spacing:0em;}.cls-5{letter-spacing:0em;}.cls-6{letter-spacing:-0.03em;}.cls-7{letter-spacing:0.04em;}.cls-8{letter-spacing:-0.07em;}.cls-9{letter-spacing:0em;}.cls-11{stroke-width:4px;}.cls-12{font-size:20px;}.cls-13{letter-spacing:-0.02em;}.cls-14{letter-spacing:-0.15em;}.cls-15{font-size:35px;font-family:Montserrat-Regular, Montserrat;}.cls-16{letter-spacing:-0.02em;}.cls-17{letter-spacing:-0.01em;}.cls-18{letter-spacing:0em;}.cls-19{letter-spacing:0em;}</style></defs><g id="Layer_2" data-name="Layer 2"><g id="Layer_1-2" data-name="Layer 1"><text class="cls-1" transform="translate(22.98 221.07) scale(1.22 1)">A <tspan class="cls-2" x="63.99" y="0">L</tspan><tspan class="cls-3" x="92.12" y="0">o</tspan><tspan class="cls-4" x="133.49" y="0">c</tspan><tspan class="cls-5" x="169.4" y="0">u</tspan><tspan x="205.69" y="0">s of </tspan><tspan class="cls-6" x="362.18" y="0">R</tspan><tspan class="cls-7" x="401.22" y="0">e</tspan><tspan x="434.43" y="0">si</tspan><tspan class="cls-8" x="479.41" y="0">l</tspan><tspan class="cls-9" x="512.4" y="0">ience</tspan></text><path class="cls-10" d="M.53,115.44l57-4.43c-.89,33.69,5.32,49.1,23.5,49.1,11.41,0,20-7.76,20-20.06,0-13.64-7.54-24.83-32.37-34.92l-24.71-10C19.15,85.07,3.3,74.1,3.41,49.6,3.52,17.35,31.23.5,77.12.5c48.21,0,72.16,15.07,73.82,45.89l-52.1,4.54c.22-34.91-7-48.21-24-48.21-12.41,0-20,7.76-20,20.5,0,13.41,6.76,23.94,32.92,34.47l25.71,10.2c25.61,10.2,40.9,20.17,40.9,42.9,0,31.7-29.48,51.54-77.81,51.54C26.46,162.33,2.3,145.15.53,115.44Z"/><path class="cls-10" d="M163.2,125.58v-2.17c0-22.65,14.58-35.32,43.08-35.32s43.07,12.67,43.07,35.32v2.17c0,22.59-14.64,35.39-43.07,35.39S163.2,148.17,163.2,125.58Zm51.68,15.63V107.79c0-12.94-2.5-18.39-8.6-18.39s-8.61,5.45-8.61,18.39v33.42c0,12.93,2.5,18.45,8.61,18.45S214.88,154.14,214.88,141.21Z"/><path class="cls-10" d="M255.25,125.38v-2.16c0-23,13.92-35.13,40.84-35.13,27.38,0,40.25,10.57,41,29.94l-33.36,3.74-.06-11.62c-.13-15.3-2.5-20.75-7.55-20.75-5.25,0-7.55,5.72-7.55,21.74V113c0,21.34,6,32.11,22.85,32.11,14.18,0,22-5.58,24.49-17.07l1.31.13C336.15,149.55,322.09,161,296.42,161,269.3,161,255.25,148.69,255.25,125.38Z"/><path class="cls-10" d="M344.94,85.46V67.08h33.68V85.46Zm0,73.54V90.06h33.68V159Z"/><path class="cls-10" d="M385.06,143v-.26c0-13.2,11.62-17.4,29.61-20.16l18-2.82V100.37c0-7.75-1.25-11-4.93-11-4.13,0-6.3,4.14-6.3,27.64l-34-1.5c-.79-18.46,12.15-27.45,40.71-27.45,27.51,0,38.21,7.09,38.21,25.61v30c0,4.2,2.1,5.19,5.71,2.37l.53.85c-4.33,9.52-11.42,14.05-22.32,14.05-12.74,0-17.73-6-16.22-20l-1.18-.26C429.31,154.47,422.61,161,407.31,161,392.8,161,385.06,154.08,385.06,143Zm47.6-15v-7l-4.79,1.12c-4.8,1.11-8.93,4.2-8.93,14.11v.59c0,7.55,1.9,10.38,5.64,10.38C430.1,147.25,432.66,141.21,432.66,128Z"/><path class="cls-10" d="M477.83,159V67.08h33.68V159Z"/><path class="cls-10" d="M544.67,159V67.08h72.22v8H578.68v37.46h34.21v5H578.68V159Z"/><path class="cls-10" d="M701.66,130.05l1.31.13C701.85,150.27,688.13,161,662.85,161c-28.43,0-42.48-12.15-42.48-35.59v-2.16c0-23.18,13.59-35.13,41.17-35.13,27.38,0,41.43,9.85,41.43,28.76a24,24,0,0,1-.26,3.81H654c1.31,16.28,7.42,24.49,23.17,24.49C691.35,145.15,699.16,140.22,701.66,130.05Zm-47.94-17c0,2,.07,3.87.14,5.65h15.29l-.06-8.54c-.07-14.25-2.5-20.75-7.68-20.75s-7.69,6.83-7.69,21.74Z"/><path class="cls-10" d="M707.56,139.76l31.58-1c-.39,14.38,2.1,20.95,9.26,20.95,4.93,0,8.08-3.42,8.08-8.67,0-7.16-4.6-11-16.55-15.43L728,131.1c-12-4.47-19.24-9.85-19.24-21,0-13.53,11.89-21.87,38.28-21.87,27,0,39.07,6.57,38.81,19.7l-30.54.72c.4-13.13-2.1-19.11-8.66-19.11-4.73,0-7.22,3.16-7.22,7.75,0,6.83,3.87,10.44,16.15,14.64l12.21,4.27c12.34,4.27,20,9.85,20,20.68,0,15.89-12.21,24.1-40.25,24.1C720,161,707.1,153.81,707.56,139.76Z"/><path class="cls-10" d="M796.72,141.8V92h-8.2v-2h8.2V81.52l33.69-13.13V90.06h13.85v2H830.41v50c0,4.73,2.16,6.44,6.43,6.44a10.77,10.77,0,0,0,7.42-2.83l.66.79c-6.63,11.16-14.84,14.45-25.41,14.45C804.08,160.91,796.72,154.67,796.72,141.8Z"/><line class="cls-11" x1="192.57" y1="50.1" x2="841.37" y2="50.1"/><text class="cls-12" transform="translate(192.57 38.6)">I<tspan class="cls-13" x="4.74" y="0">I</tspan><tspan x="9.08" y="0">T Bom</tspan><tspan class="cls-13" x="79.5" y="0">b</tspan><tspan class="cls-14" x="92.62" y="0">a</tspan><tspan x="103.82" y="0">y’s</tspan></text><text class="cls-15" transform="translate(447.82 38.6)"><tspan xml:space="preserve">21 -  22  </tspan><tspan class="cls-16" x="131.49" y="0">J</tspan><tspan x="148.5" y="0">AN</tspan><tspan class="cls-16" x="202.05" y="0">U</tspan><tspan x="229.25" y="0">A</tspan><tspan class="cls-17" x="254.34" y="0">R</tspan><tspan x="279.3" y="0">Y </tspan><tspan class="cls-18" x="310.69" y="0">2</tspan><tspan class="cls-19" x="330.43" y="0">0</tspan><tspan x="353.53" y="0">23</tspan></text></g></g></svg>